<svg xmlns="http://www.w3.org/2000/svg" xmlns:xlink="http://www.w3.org/1999/xlink" width="96" zoomAndPan="magnify" viewBox="0 0 72 72" height="96" preserveAspectRatio="xMidYMid meet" version="1.0"><defs><clipPath id="fd512c2144"><path d="M 8.734375 4.296875 L 35.734375 4.296875 L 35.734375 57.546875 L 8.734375 57.546875 Z M 8.734375 4.296875 " clip-rule="nonzero"/></clipPath><clipPath id="20740d0086"><rect x="0" width="28" y="0" height="54"/></clipPath><clipPath id="e39bf4e354"><path d="M 43 50.847656 L 51 50.847656 L 51 57 L 43 57 Z M 43 50.847656 " clip-rule="nonzero"/></clipPath><clipPath id="485667a544"><path d="M 39.34375 51 L 49 51 L 49 63 L 39.34375 63 Z M 39.34375 51 " clip-rule="nonzero"/></clipPath><clipPath id="6302681cb3"><path d="M 45 56 L 52.84375 56 L 52.84375 60 L 45 60 Z M 45 56 " clip-rule="nonzero"/></clipPath><clipPath id="820a968ab8"><path d="M 46 59 L 52 59 L 52 63.597656 L 46 63.597656 Z M 46 59 " clip-rule="nonzero"/></clipPath><clipPath id="f43fe4b37d"><path d="M 47 61 L 49 61 L 49 63.597656 L 47 63.597656 Z M 47 61 " clip-rule="nonzero"/></clipPath><clipPath id="01e5ec9bd5"><path d="M 48 61 L 51 61 L 51 63.597656 L 48 63.597656 Z M 48 61 " clip-rule="nonzero"/></clipPath><clipPath id="22f62b1174"><path d="M 19 37 L 23 37 L 23 39 L 19 39 Z M 19 37 " clip-rule="nonzero"/></clipPath><clipPath id="ec504c7edc"><path d="M 17.496094 36.113281 L 30.914062 34.636719 L 32.71875 51.039062 L 19.296875 52.511719 Z M 17.496094 36.113281 " clip-rule="nonzero"/></clipPath><clipPath id="7e07844c43"><path d="M 17.496094 36.113281 L 30.914062 34.636719 L 32.71875 51.039062 L 19.296875 52.511719 Z M 17.496094 36.113281 " clip-rule="nonzero"/></clipPath><clipPath id="e9a29ac8b5"><path d="M 19 39 L 24 39 L 24 41 L 19 41 Z M 19 39 " clip-rule="nonzero"/></clipPath><clipPath id="4a2728534b"><path d="M 17.496094 36.113281 L 30.914062 34.636719 L 32.71875 51.039062 L 19.296875 52.511719 Z M 17.496094 36.113281 " clip-rule="nonzero"/></clipPath><clipPath id="d5a16ad4a5"><path d="M 17.496094 36.113281 L 30.914062 34.636719 L 32.71875 51.039062 L 19.296875 52.511719 Z M 17.496094 36.113281 " clip-rule="nonzero"/></clipPath><clipPath id="b094727064"><path d="M 18 38 L 24 38 L 24 40 L 18 40 Z M 18 38 " clip-rule="nonzero"/></clipPath><clipPath id="1c2ae999c0"><path d="M 17.496094 36.113281 L 30.914062 34.636719 L 32.71875 51.039062 L 19.296875 52.511719 Z M 17.496094 36.113281 " clip-rule="nonzero"/></clipPath><clipPath id="c4a716f8a2"><path d="M 17.496094 36.113281 L 30.914062 34.636719 L 32.71875 51.039062 L 19.296875 52.511719 Z M 17.496094 36.113281 " clip-rule="nonzero"/></clipPath><clipPath id="0e9237a051"><path d="M 21 35 L 25 35 L 25 37 L 21 37 Z M 21 35 " clip-rule="nonzero"/></clipPath><clipPath id="8ba49d4d3b"><path d="M 17.496094 36.113281 L 30.914062 34.636719 L 32.71875 51.039062 L 19.296875 52.511719 Z M 17.496094 36.113281 " clip-rule="nonzero"/></clipPath><clipPath id="5e363cdf20"><path d="M 17.496094 36.113281 L 30.914062 34.636719 L 32.71875 51.039062 L 19.296875 52.511719 Z M 17.496094 36.113281 " clip-rule="nonzero"/></clipPath><clipPath id="a3565af101"><path d="M 19 40 L 24 40 L 24 42 L 19 42 Z M 19 40 " clip-rule="nonzero"/></clipPath><clipPath id="a078ba2161"><path d="M 17.496094 36.113281 L 30.914062 34.636719 L 32.71875 51.039062 L 19.296875 52.511719 Z M 17.496094 36.113281 " clip-rule="nonzero"/></clipPath><clipPath id="5ae8439e36"><path d="M 17.496094 36.113281 L 30.914062 34.636719 L 32.71875 51.039062 L 19.296875 52.511719 Z M 17.496094 36.113281 " clip-rule="nonzero"/></clipPath><clipPath id="8ab9a582e1"><path d="M 18 41 L 24 41 L 24 43 L 18 43 Z M 18 41 " clip-rule="nonzero"/></clipPath><clipPath id="c3d92ae1e8"><path d="M 17.496094 36.113281 L 30.914062 34.636719 L 32.71875 51.039062 L 19.296875 52.511719 Z M 17.496094 36.113281 " clip-rule="nonzero"/></clipPath><clipPath id="4d6df00be3"><path d="M 17.496094 36.113281 L 30.914062 34.636719 L 32.71875 51.039062 L 19.296875 52.511719 Z M 17.496094 36.113281 " clip-rule="nonzero"/></clipPath><clipPath id="207865cd92"><path d="M 18 43 L 25 43 L 25 44 L 18 44 Z M 18 43 " clip-rule="nonzero"/></clipPath><clipPath id="afdaa77c02"><path d="M 17.496094 36.113281 L 30.914062 34.636719 L 32.71875 51.039062 L 19.296875 52.511719 Z M 17.496094 36.113281 " clip-rule="nonzero"/></clipPath><clipPath id="cee9e3a483"><path d="M 17.496094 36.113281 L 30.914062 34.636719 L 32.71875 51.039062 L 19.296875 52.511719 Z M 17.496094 36.113281 " clip-rule="nonzero"/></clipPath><clipPath id="941781362c"><path d="M 19 36 L 25 36 L 25 38 L 19 38 Z M 19 36 " clip-rule="nonzero"/></clipPath><clipPath id="e396af9dc1"><path d="M 17.496094 36.113281 L 30.914062 34.636719 L 32.71875 51.039062 L 19.296875 52.511719 Z M 17.496094 36.113281 " clip-rule="nonzero"/></clipPath><clipPath id="8ab85c96d9"><path d="M 17.496094 36.113281 L 30.914062 34.636719 L 32.71875 51.039062 L 19.296875 52.511719 Z M 17.496094 36.113281 " clip-rule="nonzero"/></clipPath><clipPath id="b0642d7aa7"><path d="M 22 45 L 26 45 L 26 48 L 22 48 Z M 22 45 " clip-rule="nonzero"/></clipPath><clipPath id="058d764d0b"><path d="M 17.496094 36.113281 L 30.914062 34.636719 L 32.71875 51.039062 L 19.296875 52.511719 Z M 17.496094 36.113281 " clip-rule="nonzero"/></clipPath><clipPath id="6ee1645a54"><path d="M 17.496094 36.113281 L 30.914062 34.636719 L 32.71875 51.039062 L 19.296875 52.511719 Z M 17.496094 36.113281 " clip-rule="nonzero"/></clipPath><clipPath id="7c22839917"><path d="M 22 48 L 27 48 L 27 49 L 22 49 Z M 22 48 " clip-rule="nonzero"/></clipPath><clipPath id="a12566c5d5"><path d="M 17.496094 36.113281 L 30.914062 34.636719 L 32.71875 51.039062 L 19.296875 52.511719 Z M 17.496094 36.113281 " clip-rule="nonzero"/></clipPath><clipPath id="e8b7b4d19f"><path d="M 17.496094 36.113281 L 30.914062 34.636719 L 32.71875 51.039062 L 19.296875 52.511719 Z M 17.496094 36.113281 " clip-rule="nonzero"/></clipPath><clipPath id="7a2624d94e"><path d="M 19 44 L 25 44 L 25 45 L 19 45 Z M 19 44 " clip-rule="nonzero"/></clipPath><clipPath id="68861d314c"><path d="M 17.496094 36.113281 L 30.914062 34.636719 L 32.71875 51.039062 L 19.296875 52.511719 Z M 17.496094 36.113281 " clip-rule="nonzero"/></clipPath><clipPath id="ff311ebb4f"><path d="M 17.496094 36.113281 L 30.914062 34.636719 L 32.71875 51.039062 L 19.296875 52.511719 Z M 17.496094 36.113281 " clip-rule="nonzero"/></clipPath><clipPath id="819ce1d587"><path d="M 22 50 L 25 50 L 25 52 L 22 52 Z M 22 50 " clip-rule="nonzero"/></clipPath><clipPath id="b28a811a87"><path d="M 17.496094 36.113281 L 30.914062 34.636719 L 32.71875 51.039062 L 19.296875 52.511719 Z M 17.496094 36.113281 " clip-rule="nonzero"/></clipPath><clipPath id="2f1e5240ac"><path d="M 17.496094 36.113281 L 30.914062 34.636719 L 32.71875 51.039062 L 19.296875 52.511719 Z M 17.496094 36.113281 " clip-rule="nonzero"/></clipPath><clipPath id="e925c4efad"><path d="M 19 44 L 26 44 L 26 46 L 19 46 Z M 19 44 " clip-rule="nonzero"/></clipPath><clipPath id="2080600aa2"><path d="M 17.496094 36.113281 L 30.914062 34.636719 L 32.71875 51.039062 L 19.296875 52.511719 Z M 17.496094 36.113281 " clip-rule="nonzero"/></clipPath><clipPath id="7bb389328a"><path d="M 17.496094 36.113281 L 30.914062 34.636719 L 32.71875 51.039062 L 19.296875 52.511719 Z M 17.496094 36.113281 " clip-rule="nonzero"/></clipPath><clipPath id="a9de018c9f"><path d="M 22 47 L 26 47 L 26 49 L 22 49 Z M 22 47 " clip-rule="nonzero"/></clipPath><clipPath id="033379c9df"><path d="M 17.496094 36.113281 L 30.914062 34.636719 L 32.71875 51.039062 L 19.296875 52.511719 Z M 17.496094 36.113281 " clip-rule="nonzero"/></clipPath><clipPath id="18832b0dc8"><path d="M 17.496094 36.113281 L 30.914062 34.636719 L 32.71875 51.039062 L 19.296875 52.511719 Z M 17.496094 36.113281 " clip-rule="nonzero"/></clipPath><clipPath id="42cce283c0"><path d="M 23 49 L 27 49 L 27 50 L 23 50 Z M 23 49 " clip-rule="nonzero"/></clipPath><clipPath id="5a05afab79"><path d="M 17.496094 36.113281 L 30.914062 34.636719 L 32.71875 51.039062 L 19.296875 52.511719 Z M 17.496094 36.113281 " clip-rule="nonzero"/></clipPath><clipPath id="82284f1dbf"><path d="M 17.496094 36.113281 L 30.914062 34.636719 L 32.71875 51.039062 L 19.296875 52.511719 Z M 17.496094 36.113281 " clip-rule="nonzero"/></clipPath><clipPath id="7c62d3f86d"><path d="M 22 49 L 26 49 L 26 51 L 22 51 Z M 22 49 " clip-rule="nonzero"/></clipPath><clipPath id="c029a2b114"><path d="M 17.496094 36.113281 L 30.914062 34.636719 L 32.71875 51.039062 L 19.296875 52.511719 Z M 17.496094 36.113281 " clip-rule="nonzero"/></clipPath><clipPath id="17e049136c"><path d="M 17.496094 36.113281 L 30.914062 34.636719 L 32.71875 51.039062 L 19.296875 52.511719 Z M 17.496094 36.113281 " clip-rule="nonzero"/></clipPath><clipPath id="27b5185618"><path d="M 18 35 L 25 35 L 25 53 L 18 53 Z M 18 35 " clip-rule="nonzero"/></clipPath><clipPath id="0a37849570"><path d="M 17.496094 36.113281 L 30.914062 34.636719 L 32.71875 51.039062 L 19.296875 52.511719 Z M 17.496094 36.113281 " clip-rule="nonzero"/></clipPath><clipPath id="9767eb4571"><path d="M 17.496094 36.113281 L 30.914062 34.636719 L 32.71875 51.039062 L 19.296875 52.511719 Z M 17.496094 36.113281 " clip-rule="nonzero"/></clipPath><clipPath id="e1236426d6"><path d="M 24 35 L 32 35 L 32 52 L 24 52 Z M 24 35 " clip-rule="nonzero"/></clipPath><clipPath id="7114918558"><path d="M 17.496094 36.113281 L 30.914062 34.636719 L 32.71875 51.039062 L 19.296875 52.511719 Z M 17.496094 36.113281 " clip-rule="nonzero"/></clipPath><clipPath id="f5a1b79f58"><path d="M 17.496094 36.113281 L 30.914062 34.636719 L 32.71875 51.039062 L 19.296875 52.511719 Z M 17.496094 36.113281 " clip-rule="nonzero"/></clipPath></defs><g clip-path="url(#fd512c2144)"><g transform="matrix(1, 0, 0, 1, 8, 4)"><g clip-path="url(#20740d0086)"><path fill="#88c9f9" d="M 13.15625 1.648438 C 2.40625 3.839844 1.023438 18.316406 5.363281 29.417969 C 9.09375 38.960938 9.871094 50.800781 16.082031 51.925781 C 24.246094 53.410156 28.015625 46.402344 25.390625 34.910156 C 23.648438 27.285156 24.996094 20.421875 24.976562 12.789062 C 24.957031 5.574219 20.144531 0.226562 13.15625 1.648438 Z M 13.15625 1.648438 " fill-opacity="1" fill-rule="nonzero"/><path fill="#226699" d="M 13.523438 7.714844 C 11.042969 8.140625 12.753906 13.484375 12.929688 15.214844 C 13.105469 16.949219 15.550781 16.882812 15.402344 14.320312 C 15.25 11.753906 16.515625 7.199219 13.523438 7.714844 Z M 13.523438 7.714844 " fill-opacity="1" fill-rule="nonzero"/><path fill="#3b88c3" d="M 13.523438 7.714844 C 11.042969 8.140625 13.425781 12.546875 13.597656 14.28125 C 13.773438 16.011719 14.519531 16.640625 14.660156 14.078125 C 14.792969 11.65625 16.515625 7.199219 13.523438 7.714844 Z M 13.523438 7.714844 " fill-opacity="1" fill-rule="nonzero"/><path fill="#226699" d="M 14.160156 12.320312 C 8.847656 13.367188 5.855469 17.664062 5.078125 23.152344 C 4.328125 28.425781 8.222656 34.652344 9.191406 34.605469 C 11.230469 34.507812 6.003906 27.730469 9.25 22.140625 C 11.625 18.046875 12.980469 19.039062 14.484375 16.566406 C 16.246094 18.292969 18.488281 16.984375 20.816406 20.15625 C 24.398438 25.039062 20.15625 30.703125 21.660156 31.238281 C 22.8125 31.648438 26.242188 22.445312 23.644531 17.191406 C 21.144531 12.144531 14.160156 12.320312 14.160156 12.320312 Z M 14.160156 12.320312 " fill-opacity="1" fill-rule="nonzero"/><path fill="#3b88c3" d="M 14.160156 12.320312 C 8.847656 13.367188 5.855469 17.664062 5.078125 23.152344 C 4.328125 28.425781 8.054688 34.378906 9.019531 34.34375 C 10.8125 34.277344 5.703125 27.679688 8.492188 21.957031 C 10.566406 17.695312 13.46875 18.320312 14.398438 15.625 C 16.253906 18.050781 19.441406 16.03125 21.5625 19.867188 C 24.5 25.179688 20.765625 30.507812 21.828125 30.976562 C 22.945312 31.472656 26.246094 22.449219 23.644531 17.191406 C 21.144531 12.144531 14.160156 12.320312 14.160156 12.320312 Z M 14.160156 12.320312 " fill-opacity="1" fill-rule="nonzero"/></g></g></g><path fill="#88c9f9" d="M 50.835938 18.328125 C 61.585938 20.515625 62.96875 34.996094 58.628906 46.09375 C 54.898438 55.636719 54.121094 67.476562 47.910156 68.605469 C 39.746094 70.085938 35.976562 63.078125 38.601562 51.589844 C 40.34375 43.964844 38.992188 37.101562 39.015625 29.46875 C 39.035156 22.25 43.847656 16.902344 50.835938 18.328125 Z M 50.835938 18.328125 " fill-opacity="1" fill-rule="nonzero"/><path fill="#226699" d="M 50.46875 24.394531 C 52.949219 24.820312 51.238281 30.164062 51.0625 31.894531 C 50.886719 33.625 48.441406 33.558594 48.589844 30.996094 C 48.742188 28.433594 47.476562 23.878906 50.46875 24.394531 Z M 50.46875 24.394531 " fill-opacity="1" fill-rule="nonzero"/><path fill="#3b88c3" d="M 50.46875 24.394531 C 52.949219 24.820312 50.566406 29.226562 50.390625 30.957031 C 50.21875 32.6875 49.46875 33.320312 49.332031 30.757812 C 49.199219 28.332031 47.476562 23.878906 50.46875 24.394531 Z M 50.46875 24.394531 " fill-opacity="1" fill-rule="nonzero"/><path fill="#226699" d="M 49.832031 29 C 55.140625 30.042969 58.136719 34.339844 58.914062 39.832031 C 59.664062 45.105469 55.769531 51.332031 54.800781 51.285156 C 52.761719 51.183594 57.988281 44.410156 54.742188 38.820312 C 52.367188 34.722656 51.011719 35.714844 49.507812 33.246094 C 47.746094 34.96875 45.5 33.664062 43.175781 36.832031 C 39.59375 41.71875 43.835938 47.378906 42.332031 47.914062 C 41.179688 48.324219 37.75 39.125 40.347656 33.871094 C 42.847656 28.820312 49.832031 29 49.832031 29 Z M 49.832031 29 " fill-opacity="1" fill-rule="nonzero"/><path fill="#3b88c3" d="M 49.832031 29 C 55.140625 30.042969 58.136719 34.339844 58.914062 39.832031 C 59.664062 45.105469 55.9375 51.058594 54.96875 51.023438 C 53.179688 50.957031 58.289062 44.355469 55.5 38.632812 C 53.425781 34.371094 50.523438 35 49.59375 32.304688 C 47.738281 34.726562 44.550781 32.707031 42.429688 36.546875 C 39.492188 41.855469 43.226562 47.183594 42.164062 47.65625 C 41.046875 48.152344 37.746094 39.125 40.347656 33.871094 C 42.847656 28.820312 49.832031 29 49.832031 29 Z M 49.832031 29 " fill-opacity="1" fill-rule="nonzero"/><g clip-path="url(#e39bf4e354)"><path fill="#226699" d="M 43.996094 50.902344 C 43.621094 51.089844 43.621094 51.644531 44 51.820312 C 44.148438 51.886719 44.238281 51.894531 44.394531 51.851562 C 44.523438 51.816406 44.710938 51.632812 44.730469 51.523438 C 44.746094 51.441406 44.75 51.441406 44.90625 51.441406 C 45.363281 51.441406 46.179688 51.585938 46.695312 51.753906 C 48.046875 52.203125 49.183594 53.195312 49.84375 54.5 C 49.925781 54.664062 50.105469 55.097656 50.09375 55.105469 C 49.910156 55.222656 49.789062 55.40625 49.789062 55.570312 C 49.789062 55.871094 50.011719 56.101562 50.304688 56.101562 C 50.460938 56.101562 50.554688 56.066406 50.652344 55.976562 C 50.847656 55.792969 50.882812 55.503906 50.730469 55.289062 C 50.644531 55.167969 50.46875 55.066406 50.34375 55.066406 C 50.269531 55.066406 50.261719 55.054688 50.191406 54.875 C 50.097656 54.636719 49.863281 54.167969 49.730469 53.953125 C 49.425781 53.464844 48.921875 52.894531 48.496094 52.546875 C 47.546875 51.78125 46.40625 51.363281 45.007812 51.269531 L 44.746094 51.253906 L 44.730469 51.179688 C 44.71875 51.132812 44.667969 51.054688 44.613281 51 C 44.453125 50.839844 44.203125 50.800781 43.996094 50.902344 Z M 43.996094 50.902344 " fill-opacity="1" fill-rule="nonzero"/></g><g clip-path="url(#485667a544)"><path fill="#226699" d="M 43.136719 51.441406 C 41.433594 51.949219 40.089844 53.242188 39.558594 54.898438 C 39.382812 55.441406 39.347656 55.699219 39.347656 56.386719 C 39.347656 57.046875 39.371094 57.226562 39.515625 57.734375 C 39.890625 59.078125 40.910156 60.28125 42.207031 60.917969 C 42.484375 61.058594 42.996094 61.25 43.074219 61.25 C 43.105469 61.25 43.113281 61.035156 43.113281 59.84375 L 43.113281 58.433594 L 43.210938 58.363281 C 43.261719 58.324219 43.351562 58.25 43.40625 58.199219 L 43.503906 58.105469 L 43.484375 58.289062 C 43.421875 58.835938 43.496094 59.609375 43.671875 60.132812 C 43.933594 60.929688 44.351562 61.503906 44.960938 61.894531 C 45.078125 61.96875 45.183594 62.027344 45.199219 62.027344 C 45.214844 62.027344 45.238281 62.039062 45.246094 62.054688 C 45.257812 62.070312 44.816406 62.078125 43.941406 62.078125 C 42.628906 62.078125 42.621094 62.078125 42.605469 62.023438 C 42.582031 61.949219 42.441406 61.871094 42.324219 61.871094 C 42.183594 61.871094 42.050781 62.007812 42.050781 62.148438 C 42.050781 62.375 42.246094 62.515625 42.445312 62.429688 C 42.5 62.410156 42.5625 62.355469 42.589844 62.3125 L 42.632812 62.230469 L 44.328125 62.246094 C 45.261719 62.253906 46.140625 62.265625 46.28125 62.273438 C 46.417969 62.285156 46.566406 62.285156 46.59375 62.277344 L 46.65625 62.261719 L 46.582031 62.109375 L 46.503906 61.957031 L 46.238281 61.941406 C 45.582031 61.902344 45.105469 61.679688 44.667969 61.210938 C 44.292969 60.8125 44.03125 60.273438 43.882812 59.601562 C 43.804688 59.253906 43.800781 58.441406 43.871094 58.054688 C 44.003906 57.351562 44.289062 56.769531 44.730469 56.308594 C 45.011719 56.011719 45.222656 55.859375 45.316406 55.878906 C 45.433594 55.90625 45.566406 55.832031 45.617188 55.710938 L 45.660156 55.609375 L 45.828125 55.613281 C 45.921875 55.613281 46.074219 55.632812 46.164062 55.65625 C 46.320312 55.695312 46.335938 55.707031 46.351562 55.78125 C 46.382812 55.902344 46.476562 55.957031 46.613281 55.9375 C 46.722656 55.921875 46.734375 55.925781 46.886719 56.070312 C 46.976562 56.148438 47.09375 56.28125 47.148438 56.359375 C 47.265625 56.53125 47.363281 56.558594 47.488281 56.453125 C 47.53125 56.417969 47.601562 56.386719 47.640625 56.386719 C 47.769531 56.386719 48.066406 56.214844 48.21875 56.046875 C 48.429688 55.824219 48.484375 55.667969 48.484375 55.3125 C 48.484375 55.058594 48.476562 55.011719 48.414062 54.878906 C 48.328125 54.695312 48.160156 54.511719 47.988281 54.414062 L 47.855469 54.339844 L 47.84375 54.175781 C 47.8125 53.792969 47.546875 53.535156 47.148438 53.496094 C 47.042969 53.488281 46.964844 53.464844 46.929688 53.433594 C 46.859375 53.371094 46.734375 53.324219 46.671875 53.339844 C 46.628906 53.351562 46.582031 53.320312 46.480469 53.21875 C 46.328125 53.0625 46.144531 52.953125 45.949219 52.902344 C 45.789062 52.859375 45.453125 52.855469 45.300781 52.894531 C 45.199219 52.917969 45.175781 52.917969 45.113281 52.867188 C 45.035156 52.804688 44.953125 52.796875 44.886719 52.851562 C 44.84375 52.878906 44.820312 52.878906 44.71875 52.839844 C 44.65625 52.8125 44.578125 52.785156 44.554688 52.777344 C 44.515625 52.765625 44.507812 52.726562 44.507812 52.425781 L 44.507812 52.082031 L 44.425781 52.105469 C 44.179688 52.167969 43.882812 52.089844 43.695312 51.914062 C 43.589844 51.8125 43.472656 51.597656 43.472656 51.5 C 43.472656 51.421875 43.449219 51.363281 43.414062 51.367188 C 43.398438 51.367188 43.273438 51.402344 43.136719 51.441406 Z M 44.574219 52.945312 C 44.65625 52.976562 44.722656 53.011719 44.730469 53.027344 C 44.734375 53.046875 44.746094 53.09375 44.753906 53.132812 C 44.777344 53.234375 44.910156 53.308594 45.03125 53.292969 C 45.125 53.28125 45.136719 53.289062 45.238281 53.414062 C 45.417969 53.644531 45.542969 53.941406 45.589844 54.242188 C 45.613281 54.371094 45.605469 54.398438 45.566406 54.433594 C 45.488281 54.507812 45.476562 54.644531 45.542969 54.730469 C 45.589844 54.796875 45.59375 54.816406 45.566406 54.929688 C 45.550781 54.996094 45.515625 55.101562 45.492188 55.160156 C 45.445312 55.265625 45.4375 55.273438 45.339844 55.273438 C 45.199219 55.273438 45.058594 55.390625 45.039062 55.527344 C 45.023438 55.601562 45 55.636719 44.910156 55.691406 C 44.851562 55.730469 44.695312 55.863281 44.566406 55.984375 C 44.441406 56.105469 44.3125 56.203125 44.289062 56.203125 C 44.203125 56.203125 43.925781 56.046875 43.800781 55.929688 C 43.628906 55.761719 43.519531 55.589844 43.550781 55.527344 C 43.605469 55.433594 43.582031 55.296875 43.5 55.214844 C 43.429688 55.148438 43.40625 55.136719 43.324219 55.152344 C 43.144531 55.183594 43.0625 55.359375 43.152344 55.53125 C 43.1875 55.601562 43.25 55.640625 43.351562 55.648438 C 43.375 55.648438 43.441406 55.722656 43.503906 55.8125 C 43.628906 56.003906 43.832031 56.171875 44.054688 56.28125 L 44.21875 56.359375 L 44.101562 56.53125 C 43.941406 56.769531 43.78125 57.121094 43.660156 57.476562 C 43.542969 57.828125 43.449219 57.972656 43.226562 58.152344 C 42.703125 58.574219 41.941406 58.441406 41.679688 57.875 C 41.601562 57.714844 41.539062 57.4375 41.578125 57.425781 C 41.59375 57.421875 41.648438 57.375 41.699219 57.328125 C 41.835938 57.191406 42.03125 57.109375 42.214844 57.109375 C 42.332031 57.109375 42.367188 57.117188 42.375 57.152344 C 42.4375 57.351562 42.523438 57.421875 42.699219 57.421875 C 42.785156 57.421875 42.824219 57.402344 42.894531 57.332031 C 43.09375 57.132812 42.953125 56.824219 42.660156 56.824219 C 42.605469 56.824219 42.546875 56.847656 42.492188 56.890625 C 42.425781 56.945312 42.386719 56.957031 42.214844 56.960938 C 41.984375 56.96875 41.792969 57.042969 41.632812 57.183594 C 41.519531 57.28125 41.4375 57.285156 41.238281 57.214844 C 40.921875 57.09375 40.703125 56.785156 40.703125 56.460938 C 40.703125 56.242188 40.761719 56.078125 40.875 55.972656 C 40.949219 55.894531 40.984375 55.882812 41.117188 55.871094 C 41.261719 55.863281 41.273438 55.863281 41.367188 55.953125 C 41.460938 56.039062 41.464844 56.046875 41.433594 56.113281 C 41.371094 56.25 41.460938 56.386719 41.609375 56.386719 C 41.730469 56.386719 41.800781 56.3125 41.800781 56.191406 C 41.800781 56.09375 41.734375 55.996094 41.664062 55.996094 C 41.636719 55.996094 41.585938 55.957031 41.546875 55.910156 C 41.417969 55.734375 41.132812 55.664062 40.917969 55.75 C 40.871094 55.773438 40.824219 55.789062 40.820312 55.789062 C 40.8125 55.789062 40.808594 55.703125 40.808594 55.601562 C 40.808594 55.367188 40.882812 55.195312 41.050781 55.050781 C 41.1875 54.929688 41.3125 54.882812 41.519531 54.882812 C 41.65625 54.882812 41.664062 54.886719 41.664062 54.949219 C 41.664062 55.046875 41.777344 55.144531 41.894531 55.144531 C 42.007812 55.144531 42.046875 55.175781 42.148438 55.386719 C 42.214844 55.523438 42.222656 55.546875 42.191406 55.605469 C 42.144531 55.695312 42.144531 55.71875 42.207031 55.800781 C 42.253906 55.855469 42.28125 55.867188 42.355469 55.863281 C 42.546875 55.847656 42.601562 55.628906 42.4375 55.535156 C 42.390625 55.511719 42.347656 55.449219 42.320312 55.382812 C 42.296875 55.320312 42.238281 55.21875 42.191406 55.152344 C 42.125 55.066406 42.101562 55.011719 42.101562 54.9375 C 42.101562 54.859375 42.085938 54.824219 42.023438 54.769531 C 41.9375 54.699219 41.871094 54.6875 41.789062 54.730469 C 41.761719 54.746094 41.703125 54.75 41.660156 54.742188 C 41.59375 54.726562 41.585938 54.714844 41.585938 54.628906 C 41.585938 54.410156 41.71875 54.199219 41.914062 54.105469 C 42.011719 54.058594 42.078125 54.046875 42.246094 54.046875 C 42.476562 54.046875 42.640625 54.101562 42.828125 54.230469 C 42.9375 54.304688 42.945312 54.316406 42.9375 54.414062 C 42.914062 54.628906 43.09375 54.789062 43.292969 54.730469 C 43.421875 54.691406 43.496094 54.605469 43.519531 54.46875 C 43.539062 54.359375 43.546875 54.351562 43.679688 54.296875 C 43.894531 54.210938 44.148438 54.214844 44.332031 54.308594 C 44.457031 54.371094 44.472656 54.386719 44.472656 54.460938 C 44.472656 54.640625 44.683594 54.722656 44.792969 54.582031 C 44.824219 54.546875 44.847656 54.496094 44.847656 54.46875 C 44.847656 54.390625 44.746094 54.289062 44.664062 54.289062 C 44.625 54.289062 44.535156 54.253906 44.472656 54.214844 C 44.230469 54.0625 43.910156 54.042969 43.605469 54.167969 C 43.457031 54.226562 43.433594 54.230469 43.386719 54.195312 C 43.328125 54.152344 43.144531 54.144531 43.089844 54.183594 C 43.0625 54.199219 43.007812 54.175781 42.90625 54.109375 C 42.691406 53.960938 42.488281 53.894531 42.253906 53.894531 L 42.058594 53.890625 L 42.085938 53.816406 C 42.101562 53.769531 42.164062 53.679688 42.226562 53.613281 C 42.382812 53.441406 42.5625 53.375 42.839844 53.386719 C 43.105469 53.402344 43.242188 53.464844 43.273438 53.582031 C 43.296875 53.679688 43.421875 53.757812 43.515625 53.734375 C 43.679688 53.695312 43.738281 53.484375 43.613281 53.371094 L 43.550781 53.308594 L 43.601562 53.207031 C 43.742188 52.933594 44.210938 52.808594 44.574219 52.945312 Z M 46.089844 53.117188 C 46.179688 53.164062 46.304688 53.25 46.367188 53.3125 C 46.476562 53.425781 46.476562 53.425781 46.4375 53.503906 C 46.417969 53.542969 46.398438 53.605469 46.398438 53.640625 C 46.398438 53.738281 46.496094 53.878906 46.585938 53.910156 C 46.664062 53.9375 46.664062 53.9375 46.648438 54.097656 C 46.617188 54.484375 46.304688 54.769531 45.996094 54.683594 C 45.933594 54.664062 45.917969 54.644531 45.90625 54.5625 C 45.894531 54.496094 45.867188 54.445312 45.820312 54.410156 C 45.777344 54.378906 45.75 54.339844 45.75 54.292969 C 45.75 54.054688 45.527344 53.519531 45.324219 53.285156 C 45.257812 53.203125 45.214844 53.132812 45.222656 53.109375 C 45.25 53.050781 45.386719 53.023438 45.660156 53.027344 C 45.898438 53.035156 45.9375 53.042969 46.089844 53.117188 Z M 43.445312 53.140625 C 43.457031 53.148438 43.398438 53.308594 43.371094 53.339844 C 43.359375 53.351562 43.257812 53.328125 43.140625 53.289062 C 42.90625 53.210938 42.90625 53.195312 43.136719 53.132812 C 43.238281 53.101562 43.414062 53.109375 43.445312 53.140625 Z M 47.375 53.703125 C 47.484375 53.757812 47.589844 53.871094 47.644531 53.992188 C 47.777344 54.285156 47.609375 54.652344 47.292969 54.761719 C 47.121094 54.820312 47.058594 54.816406 46.984375 54.742188 C 46.949219 54.707031 46.886719 54.675781 46.851562 54.675781 C 46.765625 54.675781 46.65625 54.785156 46.65625 54.871094 C 46.65625 54.957031 46.765625 55.066406 46.851562 55.066406 C 46.886719 55.066406 46.9375 55.042969 46.964844 55.019531 C 46.992188 54.988281 47.066406 54.964844 47.144531 54.953125 C 47.347656 54.929688 47.523438 54.839844 47.652344 54.699219 C 47.71875 54.625 47.769531 54.550781 47.769531 54.53125 C 47.769531 54.433594 48.066406 54.621094 48.183594 54.792969 C 48.296875 54.957031 48.34375 55.101562 48.347656 55.296875 C 48.351562 55.726562 48.082031 56.101562 47.671875 56.21875 C 47.539062 56.257812 47.527344 56.257812 47.507812 56.21875 C 47.46875 56.15625 47.367188 56.125 47.289062 56.152344 C 47.226562 56.179688 47.203125 56.164062 47.011719 55.980469 C 46.871094 55.847656 46.796875 55.75 46.78125 55.699219 C 46.75 55.550781 46.574219 55.460938 46.453125 55.535156 C 46.414062 55.558594 46.371094 55.554688 46.242188 55.519531 C 46.152344 55.492188 45.972656 55.464844 45.851562 55.457031 C 45.578125 55.441406 45.546875 55.410156 45.621094 55.242188 C 45.644531 55.179688 45.683594 55.066406 45.703125 54.988281 C 45.75 54.808594 45.804688 54.769531 45.945312 54.820312 C 46.082031 54.867188 46.128906 54.867188 46.296875 54.816406 C 46.5625 54.738281 46.765625 54.445312 46.804688 54.082031 C 46.816406 53.957031 46.832031 53.921875 46.890625 53.878906 C 46.933594 53.847656 46.980469 53.78125 46.996094 53.730469 L 47.023438 53.632812 L 47.164062 53.648438 C 47.238281 53.65625 47.332031 53.679688 47.375 53.703125 Z M 41.484375 54.386719 C 41.46875 54.414062 41.449219 54.5 41.441406 54.578125 C 41.425781 54.71875 41.421875 54.722656 41.316406 54.75 C 41.257812 54.765625 41.203125 54.773438 41.199219 54.765625 C 41.164062 54.730469 41.265625 54.53125 41.367188 54.425781 C 41.488281 54.308594 41.535156 54.292969 41.484375 54.386719 Z M 41.484375 54.386719 " fill-opacity="1" fill-rule="nonzero"/></g><g clip-path="url(#6302681cb3)"><path fill="#226699" d="M 49.007812 56.207031 C 48.804688 56.238281 48.621094 56.382812 48.550781 56.574219 C 48.523438 56.640625 48.511719 56.644531 48.375 56.644531 C 47.992188 56.648438 47.402344 56.691406 47.375 56.71875 C 47.355469 56.738281 47.210938 56.746094 46.949219 56.746094 L 46.550781 56.746094 L 46.464844 56.65625 C 46.394531 56.582031 46.363281 56.566406 46.273438 56.566406 C 46.054688 56.566406 45.929688 56.816406 46.058594 56.984375 L 46.109375 57.046875 L 45.707031 57.808594 C 45.492188 58.226562 45.25 58.6875 45.175781 58.824219 L 45.042969 59.078125 L 45.089844 59.214844 C 45.171875 59.484375 45.457031 59.730469 45.816406 59.84375 C 46.050781 59.917969 46.40625 59.929688 46.640625 59.867188 C 47.054688 59.757812 47.390625 59.472656 47.460938 59.167969 C 47.476562 59.085938 47.4375 59 46.957031 58.0625 L 46.433594 57.046875 L 46.488281 56.960938 L 46.542969 56.878906 L 46.929688 56.878906 C 47.21875 56.878906 47.332031 56.886719 47.371094 56.914062 C 47.40625 56.9375 47.566406 56.953125 47.925781 56.964844 C 48.5 56.984375 48.539062 56.992188 48.5625 57.0625 C 48.589844 57.144531 48.726562 57.292969 48.835938 57.34375 L 48.933594 57.394531 L 48.941406 58.0625 L 48.949219 58.726562 L 49.113281 58.734375 L 49.273438 58.742188 L 49.273438 57.402344 L 49.375 57.355469 C 49.488281 57.308594 49.644531 57.152344 49.671875 57.0625 C 49.695312 56.992188 49.757812 56.984375 50.332031 56.964844 C 50.605469 56.953125 50.832031 56.9375 50.839844 56.921875 C 50.847656 56.914062 51.035156 56.902344 51.257812 56.902344 L 51.664062 56.90625 L 51.714844 56.972656 L 51.765625 57.042969 L 51.597656 57.367188 C 51.503906 57.546875 51.265625 57.996094 51.074219 58.367188 C 50.875 58.75 50.722656 59.070312 50.722656 59.109375 C 50.722656 59.222656 50.824219 59.417969 50.957031 59.546875 C 51.183594 59.777344 51.535156 59.90625 51.9375 59.90625 C 52.34375 59.90625 52.664062 59.777344 52.902344 59.519531 C 53.003906 59.410156 53.0625 59.320312 53.09375 59.222656 L 53.132812 59.085938 L 52.617188 58.066406 L 52.097656 57.046875 L 52.148438 56.96875 C 52.261719 56.785156 52.144531 56.570312 51.929688 56.566406 C 51.851562 56.566406 51.8125 56.585938 51.738281 56.65625 L 51.648438 56.746094 L 51.265625 56.746094 C 50.972656 56.746094 50.875 56.738281 50.835938 56.707031 C 50.804688 56.683594 50.722656 56.671875 50.601562 56.671875 C 50.5 56.671875 50.257812 56.664062 50.0625 56.652344 L 49.710938 56.636719 L 49.675781 56.554688 C 49.570312 56.300781 49.304688 56.164062 49.007812 56.207031 Z M 49.316406 56.488281 C 49.503906 56.601562 49.546875 56.878906 49.398438 57.046875 C 49.25 57.214844 49 57.222656 48.84375 57.058594 C 48.746094 56.953125 48.722656 56.738281 48.796875 56.617188 C 48.914062 56.441406 49.140625 56.382812 49.316406 56.488281 Z M 46.785156 58.042969 C 47.054688 58.566406 47.277344 59.003906 47.277344 59.011719 C 47.277344 59.019531 46.816406 59.023438 46.257812 59.023438 L 45.234375 59.023438 L 45.414062 58.679688 C 45.515625 58.496094 45.746094 58.058594 45.925781 57.710938 C 46.105469 57.367188 46.261719 57.085938 46.269531 57.085938 C 46.28125 57.085938 46.511719 57.515625 46.785156 58.042969 Z M 52.464844 58.085938 L 52.9375 59.023438 L 51.921875 59.023438 C 51.359375 59.023438 50.902344 59.015625 50.902344 59.003906 C 50.902344 58.996094 50.921875 58.949219 50.949219 58.910156 C 50.976562 58.863281 51.152344 58.535156 51.339844 58.171875 C 51.910156 57.078125 51.910156 57.074219 51.949219 57.113281 C 51.96875 57.132812 52.199219 57.570312 52.464844 58.085938 Z M 52.464844 58.085938 " fill-opacity="1" fill-rule="nonzero"/></g><g clip-path="url(#820a968ab8)"><path fill="#226699" d="M 47.660156 59.203125 C 47.636719 59.566406 47.472656 59.816406 47.179688 59.953125 C 47.054688 60.007812 46.984375 60.023438 46.722656 60.035156 L 46.410156 60.046875 L 46.417969 60.332031 C 46.429688 60.699219 46.464844 60.96875 46.542969 61.285156 C 46.820312 62.382812 47.566406 63.28125 48.511719 63.65625 C 48.757812 63.753906 48.789062 63.753906 49.113281 63.621094 C 49.734375 63.363281 50.339844 62.761719 50.699219 62.039062 C 50.953125 61.539062 51.078125 61.035156 51.101562 60.433594 L 51.117188 60.039062 L 50.796875 60.03125 C 50.429688 60.019531 50.3125 59.980469 50.132812 59.816406 C 49.984375 59.683594 49.898438 59.492188 49.859375 59.222656 L 49.832031 59 L 47.675781 59 Z M 49.523438 59.515625 C 49.636719 59.96875 50.035156 60.316406 50.53125 60.402344 L 50.722656 60.433594 L 50.722656 60.539062 C 50.722656 60.851562 50.554688 61.480469 50.371094 61.859375 C 50.085938 62.460938 49.566406 62.992188 49.011719 63.257812 C 48.90625 63.304688 48.796875 63.347656 48.765625 63.347656 C 48.695312 63.347656 48.375 63.191406 48.179688 63.058594 C 47.972656 62.921875 47.621094 62.582031 47.460938 62.363281 C 47.132812 61.925781 46.878906 61.269531 46.824219 60.746094 C 46.816406 60.660156 46.804688 60.554688 46.796875 60.511719 L 46.789062 60.433594 L 46.984375 60.402344 C 47.382812 60.339844 47.738281 60.085938 47.910156 59.75 C 47.960938 59.652344 48.007812 59.523438 48.015625 59.464844 L 48.035156 59.363281 L 48.757812 59.367188 L 49.488281 59.375 Z M 49.523438 59.515625 " fill-opacity="1" fill-rule="nonzero"/></g><path fill="#226699" d="M 48.152344 59.507812 C 48.140625 59.515625 48.132812 59.546875 48.132812 59.570312 C 48.132812 59.59375 48.089844 59.699219 48.039062 59.800781 C 47.859375 60.160156 47.480469 60.453125 47.09375 60.527344 L 46.941406 60.558594 L 46.957031 60.679688 C 46.964844 60.742188 46.992188 60.894531 47.011719 61.011719 L 47.054688 61.226562 L 48.675781 61.226562 L 48.675781 59.492188 L 48.421875 59.492188 C 48.28125 59.492188 48.160156 59.5 48.152344 59.507812 Z M 48.152344 59.507812 " fill-opacity="1" fill-rule="nonzero"/><path fill="#226699" d="M 48.851562 59.507812 C 48.839844 59.515625 48.832031 59.90625 48.832031 60.375 L 48.832031 61.226562 L 49.644531 61.226562 C 50.09375 61.226562 50.464844 61.214844 50.472656 61.203125 C 50.488281 61.179688 50.558594 60.804688 50.574219 60.667969 L 50.585938 60.5625 L 50.402344 60.519531 C 50.140625 60.457031 49.964844 60.359375 49.761719 60.175781 C 49.59375 60.015625 49.402344 59.714844 49.402344 59.613281 C 49.402344 59.519531 49.328125 59.492188 49.09375 59.492188 C 48.96875 59.492188 48.859375 59.5 48.851562 59.507812 Z M 48.851562 59.507812 " fill-opacity="1" fill-rule="nonzero"/><g clip-path="url(#f43fe4b37d)"><path fill="#226699" d="M 47.097656 61.359375 C 47.097656 61.394531 47.230469 61.699219 47.324219 61.878906 C 47.53125 62.277344 47.796875 62.597656 48.136719 62.859375 C 48.3125 62.988281 48.613281 63.167969 48.664062 63.167969 C 48.671875 63.167969 48.675781 62.757812 48.675781 62.261719 L 48.675781 61.355469 L 47.886719 61.355469 C 47.453125 61.355469 47.097656 61.355469 47.097656 61.359375 Z M 47.097656 61.359375 " fill-opacity="1" fill-rule="nonzero"/></g><g clip-path="url(#01e5ec9bd5)"><path fill="#226699" d="M 48.832031 62.261719 C 48.832031 63.3125 48.796875 63.226562 49.125 63.035156 C 49.5 62.824219 49.882812 62.4375 50.121094 62.046875 C 50.21875 61.882812 50.410156 61.449219 50.410156 61.394531 C 50.410156 61.359375 50.300781 61.355469 49.621094 61.355469 L 48.832031 61.355469 Z M 48.832031 62.261719 " fill-opacity="1" fill-rule="nonzero"/></g><g clip-path="url(#22f62b1174)"><g clip-path="url(#ec504c7edc)"><g clip-path="url(#7e07844c43)"><path fill="#226699" d="M 22.183594 37.785156 C 22.007812 37.785156 21.871094 37.90625 21.839844 38.066406 C 21.835938 38.074219 21.828125 38.082031 21.820312 38.082031 L 19.175781 38.371094 C 19.125 38.4375 19.140625 38.496094 19.089844 38.5625 L 21.839844 38.257812 C 21.847656 38.257812 21.859375 38.261719 21.859375 38.273438 C 21.921875 38.40625 22.0625 38.492188 22.214844 38.476562 C 22.417969 38.453125 22.5625 38.257812 22.515625 38.050781 C 22.484375 37.898438 22.34375 37.785156 22.183594 37.785156 Z M 22.191406 38.234375 C 22.132812 38.242188 22.082031 38.199219 22.074219 38.144531 C 22.070312 38.085938 22.109375 38.035156 22.167969 38.03125 C 22.226562 38.023438 22.273438 38.066406 22.28125 38.121094 C 22.289062 38.175781 22.246094 38.230469 22.191406 38.234375 Z M 22.191406 38.234375 " fill-opacity="1" fill-rule="nonzero"/></g></g></g><g clip-path="url(#e9a29ac8b5)"><g clip-path="url(#4a2728534b)"><g clip-path="url(#d5a16ad4a5)"><path fill="#226699" d="M 23.402344 39.453125 C 23.234375 39.453125 23.101562 39.566406 23.0625 39.714844 C 23.058594 39.734375 23.039062 39.75 23.015625 39.753906 L 19.316406 40.160156 C 19.269531 40.167969 19.226562 40.152344 19.191406 40.125 L 19.023438 39.988281 L 19.050781 40.238281 L 19.078125 40.261719 C 19.152344 40.320312 19.246094 40.347656 19.339844 40.339844 L 23.035156 39.933594 C 23.054688 39.929688 23.078125 39.941406 23.089844 39.960938 C 23.152344 40.085938 23.289062 40.164062 23.433594 40.144531 C 23.636719 40.125 23.78125 39.929688 23.734375 39.722656 C 23.699219 39.570312 23.5625 39.457031 23.402344 39.453125 Z M 23.410156 39.90625 C 23.351562 39.910156 23.300781 39.871094 23.292969 39.8125 C 23.289062 39.757812 23.328125 39.707031 23.386719 39.699219 C 23.445312 39.695312 23.492188 39.734375 23.5 39.792969 C 23.507812 39.847656 23.464844 39.898438 23.410156 39.90625 Z M 23.410156 39.90625 " fill-opacity="1" fill-rule="nonzero"/></g></g></g><g clip-path="url(#b094727064)"><g clip-path="url(#1c2ae999c0)"><g clip-path="url(#c4a716f8a2)"><path fill="#226699" d="M 22.953125 38.40625 C 22.785156 38.402344 22.652344 38.515625 22.609375 38.664062 C 22.605469 38.6875 22.589844 38.703125 22.566406 38.703125 L 21.109375 38.863281 C 21.007812 38.875 20.933594 38.96875 20.945312 39.066406 L 20.980469 39.386719 C 20.980469 39.386719 20.976562 39.390625 20.96875 39.390625 L 18.980469 39.609375 L 19 39.789062 L 20.988281 39.570312 C 21.09375 39.558594 21.167969 39.464844 21.15625 39.367188 L 21.121094 39.046875 C 21.121094 39.046875 21.125 39.042969 21.128906 39.042969 L 22.585938 38.882812 C 22.609375 38.878906 22.628906 38.890625 22.636719 38.910156 C 22.703125 39.035156 22.835938 39.113281 22.984375 39.097656 C 23.1875 39.074219 23.332031 38.878906 23.285156 38.671875 C 23.253906 38.519531 23.113281 38.40625 22.953125 38.40625 Z M 22.957031 38.859375 C 22.902344 38.863281 22.851562 38.820312 22.84375 38.765625 C 22.839844 38.707031 22.878906 38.660156 22.9375 38.652344 C 22.996094 38.644531 23.042969 38.6875 23.050781 38.742188 C 23.058594 38.800781 23.015625 38.851562 22.957031 38.859375 Z M 22.957031 38.859375 " fill-opacity="1" fill-rule="nonzero"/></g></g></g><g clip-path="url(#0e9237a051)"><g clip-path="url(#8ba49d4d3b)"><g clip-path="url(#5e363cdf20)"><path fill="#226699" d="M 24.421875 36.179688 C 24.308594 36.179688 24.210938 36.230469 24.148438 36.3125 C 24.140625 36.324219 24.109375 36.367188 24.101562 36.382812 C 24.089844 36.398438 24.039062 36.378906 24.039062 36.378906 L 23.578125 36.007812 C 23.523438 35.964844 23.460938 35.949219 23.394531 35.957031 L 21.828125 36.128906 L 21.648438 36.328125 L 23.414062 36.132812 C 23.433594 36.128906 23.449219 36.136719 23.464844 36.148438 L 23.964844 36.546875 C 23.984375 36.5625 24 36.578125 24.023438 36.585938 C 24.0625 36.613281 24.09375 36.644531 24.113281 36.6875 C 24.179688 36.8125 24.3125 36.890625 24.460938 36.875 C 24.664062 36.851562 24.808594 36.65625 24.761719 36.449219 C 24.726562 36.292969 24.582031 36.179688 24.421875 36.179688 Z M 24.433594 36.632812 C 24.375 36.636719 24.324219 36.59375 24.320312 36.539062 C 24.3125 36.484375 24.355469 36.433594 24.410156 36.425781 C 24.46875 36.417969 24.519531 36.460938 24.523438 36.515625 C 24.53125 36.574219 24.492188 36.625 24.433594 36.632812 Z M 24.433594 36.632812 " fill-opacity="1" fill-rule="nonzero"/></g></g></g><g clip-path="url(#a3565af101)"><g clip-path="url(#a078ba2161)"><g clip-path="url(#5ae8439e36)"><path fill="#226699" d="M 23.191406 40.644531 C 23.019531 40.644531 22.882812 40.769531 22.851562 40.925781 C 22.847656 40.941406 22.832031 40.957031 22.8125 40.957031 L 20.082031 41.257812 C 20.0625 41.261719 20.039062 41.253906 20.019531 41.238281 L 19.507812 40.828125 C 19.488281 40.8125 19.460938 40.804688 19.4375 40.808594 L 19.183594 40.835938 L 19.203125 41.015625 L 19.386719 40.992188 C 19.410156 40.992188 19.433594 41 19.453125 41.011719 L 19.96875 41.425781 C 19.988281 41.441406 20.007812 41.449219 20.03125 41.445312 L 22.847656 41.136719 C 22.867188 41.132812 22.882812 41.144531 22.890625 41.15625 C 22.957031 41.28125 23.089844 41.351562 23.234375 41.335938 C 23.4375 41.316406 23.582031 41.121094 23.535156 40.914062 C 23.5 40.753906 23.355469 40.640625 23.191406 40.644531 Z M 23.203125 41.09375 C 23.148438 41.097656 23.097656 41.058594 23.089844 41.003906 C 23.085938 40.945312 23.125 40.894531 23.183594 40.886719 C 23.238281 40.882812 23.289062 40.921875 23.296875 40.980469 C 23.304688 41.035156 23.261719 41.085938 23.203125 41.09375 Z M 23.203125 41.09375 " fill-opacity="1" fill-rule="nonzero"/></g></g></g><g clip-path="url(#8ab9a582e1)"><g clip-path="url(#c3d92ae1e8)"><g clip-path="url(#4d6df00be3)"><path fill="#226699" d="M 23.351562 41.511719 C 23.21875 41.429688 23.039062 41.445312 22.925781 41.554688 C 22.875 41.601562 22.84375 41.660156 22.828125 41.722656 C 22.820312 41.75 22.796875 41.773438 22.769531 41.777344 L 20.914062 41.972656 C 20.761719 41.988281 20.628906 42.0625 20.53125 42.179688 L 20.378906 42.371094 C 20.359375 42.390625 20.332031 42.40625 20.304688 42.410156 L 18.707031 42.585938 L 18.59375 42.777344 L 20.382812 42.582031 C 20.410156 42.578125 20.4375 42.5625 20.457031 42.542969 L 20.667969 42.292969 C 20.734375 42.214844 20.828125 42.164062 20.933594 42.152344 L 22.800781 41.953125 C 22.828125 41.949219 22.855469 41.964844 22.867188 41.984375 C 22.886719 42.019531 22.914062 42.050781 22.945312 42.078125 C 23.019531 42.136719 23.113281 42.164062 23.203125 42.152344 C 23.292969 42.144531 23.375 42.101562 23.4375 42.027344 C 23.5625 41.867188 23.53125 41.625 23.351562 41.511719 Z M 23.246094 41.871094 C 23.207031 41.914062 23.144531 41.921875 23.097656 41.886719 C 23.078125 41.871094 23.066406 41.84375 23.0625 41.816406 C 23.058594 41.789062 23.066406 41.761719 23.082031 41.742188 C 23.101562 41.71875 23.125 41.707031 23.152344 41.703125 C 23.179688 41.699219 23.207031 41.707031 23.230469 41.726562 C 23.25 41.742188 23.265625 41.765625 23.265625 41.792969 C 23.273438 41.824219 23.261719 41.851562 23.246094 41.871094 Z M 23.246094 41.871094 " fill-opacity="1" fill-rule="nonzero"/></g></g></g><g clip-path="url(#207865cd92)"><g clip-path="url(#afdaa77c02)"><g clip-path="url(#cee9e3a483)"><path fill="#226699" d="M 23.863281 43.117188 C 23.710938 43.121094 23.585938 43.21875 23.542969 43.351562 C 23.535156 43.375 23.515625 43.394531 23.492188 43.398438 L 22.222656 43.539062 C 22.183594 43.542969 22.140625 43.53125 22.109375 43.503906 L 21.777344 43.238281 C 21.726562 43.199219 21.664062 43.179688 21.597656 43.1875 L 18.5 43.527344 L 18.769531 43.675781 L 21.539062 43.375 C 21.605469 43.367188 21.671875 43.386719 21.722656 43.425781 L 21.996094 43.644531 C 22.066406 43.699219 22.152344 43.726562 22.238281 43.71875 L 23.496094 43.578125 C 23.523438 43.578125 23.550781 43.589844 23.5625 43.617188 C 23.621094 43.746094 23.761719 43.828125 23.914062 43.8125 C 24.117188 43.789062 24.261719 43.59375 24.214844 43.386719 C 24.175781 43.226562 24.027344 43.109375 23.863281 43.117188 Z M 23.886719 43.566406 C 23.828125 43.574219 23.777344 43.53125 23.769531 43.476562 C 23.765625 43.417969 23.804688 43.367188 23.863281 43.363281 C 23.917969 43.355469 23.96875 43.398438 23.976562 43.453125 C 23.980469 43.507812 23.941406 43.558594 23.886719 43.566406 Z M 23.886719 43.566406 " fill-opacity="1" fill-rule="nonzero"/></g></g></g><g clip-path="url(#941781362c)"><g clip-path="url(#e396af9dc1)"><g clip-path="url(#8ab85c96d9)"><path fill="#226699" d="M 23.707031 36.90625 C 23.570312 36.90625 23.457031 36.980469 23.398438 37.089844 C 23.359375 37.164062 23.285156 37.210938 23.203125 37.21875 L 22.363281 37.3125 C 22.316406 37.316406 22.273438 37.304688 22.238281 37.273438 L 22.050781 37.113281 C 22.027344 37.09375 22 37.082031 21.96875 37.085938 L 19.859375 37.316406 L 19.878906 37.496094 L 21.90625 37.269531 C 21.9375 37.269531 21.96875 37.277344 21.988281 37.296875 L 22.128906 37.414062 C 22.203125 37.472656 22.292969 37.5 22.386719 37.488281 L 23.226562 37.394531 C 23.308594 37.386719 23.390625 37.417969 23.445312 37.480469 C 23.515625 37.5625 23.628906 37.609375 23.746094 37.597656 C 23.949219 37.574219 24.09375 37.378906 24.046875 37.175781 C 24.007812 37.023438 23.867188 36.910156 23.707031 36.90625 Z M 23.714844 37.359375 C 23.65625 37.363281 23.605469 37.324219 23.601562 37.265625 C 23.59375 37.210938 23.636719 37.160156 23.691406 37.152344 C 23.746094 37.148438 23.800781 37.1875 23.804688 37.242188 C 23.8125 37.300781 23.773438 37.351562 23.714844 37.359375 Z M 23.714844 37.359375 " fill-opacity="1" fill-rule="nonzero"/></g></g></g><g clip-path="url(#b0642d7aa7)"><g clip-path="url(#058d764d0b)"><g clip-path="url(#6ee1645a54)"><path fill="#226699" d="M 25.25 45.796875 C 25.082031 45.796875 24.953125 45.90625 24.910156 46.050781 C 24.902344 46.078125 24.878906 46.097656 24.851562 46.097656 L 23.410156 46.257812 C 23.304688 46.269531 23.230469 46.359375 23.242188 46.460938 L 23.277344 46.777344 C 23.277344 46.78125 23.273438 46.785156 23.269531 46.785156 L 22.503906 46.867188 L 22.597656 47.039062 L 23.289062 46.960938 C 23.390625 46.949219 23.464844 46.859375 23.453125 46.757812 L 23.417969 46.441406 C 23.417969 46.441406 23.421875 46.4375 23.425781 46.433594 L 24.871094 46.277344 C 24.898438 46.273438 24.925781 46.289062 24.941406 46.3125 C 25.007812 46.429688 25.140625 46.507812 25.28125 46.492188 C 25.488281 46.46875 25.632812 46.273438 25.585938 46.066406 C 25.546875 45.910156 25.40625 45.796875 25.25 45.796875 Z M 25.257812 46.246094 C 25.199219 46.253906 25.148438 46.210938 25.140625 46.15625 C 25.136719 46.101562 25.175781 46.046875 25.234375 46.042969 C 25.289062 46.035156 25.339844 46.078125 25.347656 46.132812 C 25.355469 46.1875 25.3125 46.242188 25.257812 46.246094 Z M 25.257812 46.246094 " fill-opacity="1" fill-rule="nonzero"/></g></g></g><g clip-path="url(#7c22839917)"><g clip-path="url(#a12566c5d5)"><g clip-path="url(#e8b7b4d19f)"><path fill="#226699" d="M 25.816406 48.15625 C 25.648438 48.15625 25.515625 48.273438 25.476562 48.421875 C 25.472656 48.449219 25.449219 48.46875 25.417969 48.472656 L 22.976562 48.742188 L 22.996094 48.917969 L 25.449219 48.648438 C 25.476562 48.644531 25.503906 48.660156 25.519531 48.679688 C 25.585938 48.796875 25.714844 48.863281 25.855469 48.847656 C 26.058594 48.824219 26.203125 48.628906 26.15625 48.425781 C 26.121094 48.269531 25.976562 48.15625 25.816406 48.15625 Z M 25.828125 48.609375 C 25.773438 48.613281 25.71875 48.574219 25.714844 48.515625 C 25.707031 48.460938 25.75 48.410156 25.804688 48.402344 C 25.859375 48.394531 25.914062 48.4375 25.917969 48.492188 C 25.925781 48.550781 25.882812 48.601562 25.828125 48.609375 Z M 25.828125 48.609375 " fill-opacity="1" fill-rule="nonzero"/></g></g></g><g clip-path="url(#7a2624d94e)"><g clip-path="url(#68861d314c)"><g clip-path="url(#ff311ebb4f)"><path fill="#226699" d="M 24.339844 44.015625 C 24.175781 44.015625 24.039062 44.125 24 44.269531 C 23.992188 44.296875 23.96875 44.316406 23.941406 44.316406 L 22.996094 44.421875 C 22.949219 44.425781 22.902344 44.414062 22.867188 44.386719 L 22.683594 44.222656 C 22.660156 44.203125 22.628906 44.191406 22.601562 44.195312 L 19.226562 44.566406 L 19.246094 44.742188 L 22.535156 44.382812 C 22.566406 44.378906 22.597656 44.386719 22.617188 44.40625 L 22.757812 44.523438 C 22.832031 44.582031 22.921875 44.609375 23.015625 44.597656 L 23.964844 44.496094 C 23.992188 44.492188 24.019531 44.503906 24.03125 44.527344 C 24.097656 44.648438 24.230469 44.722656 24.371094 44.707031 C 24.578125 44.6875 24.722656 44.492188 24.675781 44.285156 C 24.636719 44.132812 24.496094 44.019531 24.339844 44.015625 Z M 24.347656 44.46875 C 24.289062 44.472656 24.238281 44.433594 24.234375 44.375 C 24.226562 44.320312 24.269531 44.269531 24.324219 44.261719 C 24.378906 44.257812 24.433594 44.296875 24.4375 44.355469 C 24.445312 44.410156 24.402344 44.460938 24.347656 44.46875 Z M 24.347656 44.46875 " fill-opacity="1" fill-rule="nonzero"/></g></g></g><g clip-path="url(#819ce1d587)"><g clip-path="url(#b28a811a87)"><g clip-path="url(#2f1e5240ac)"><path fill="#226699" d="M 24.757812 51.265625 C 24.722656 51.109375 24.585938 50.996094 24.425781 50.996094 C 24.257812 50.992188 24.125 51.105469 24.085938 51.25 C 24.078125 51.273438 24.058594 51.292969 24.035156 51.292969 L 22.3125 51.484375 C 22.308594 51.570312 22.261719 51.628906 22.199219 51.675781 L 24.050781 51.472656 C 24.074219 51.472656 24.101562 51.484375 24.113281 51.503906 C 24.175781 51.628906 24.3125 51.707031 24.457031 51.691406 C 24.664062 51.664062 24.808594 51.46875 24.757812 51.265625 Z M 24.433594 51.445312 C 24.375 51.453125 24.324219 51.410156 24.316406 51.355469 C 24.3125 51.296875 24.351562 51.246094 24.410156 51.238281 C 24.46875 51.234375 24.515625 51.273438 24.523438 51.332031 C 24.53125 51.386719 24.488281 51.4375 24.433594 51.445312 Z M 24.433594 51.445312 " fill-opacity="1" fill-rule="nonzero"/></g></g></g><g clip-path="url(#e925c4efad)"><g clip-path="url(#2080600aa2)"><g clip-path="url(#7bb389328a)"><path fill="#226699" d="M 24.695312 44.875 C 24.527344 44.871094 24.398438 44.980469 24.355469 45.125 C 24.347656 45.152344 24.324219 45.171875 24.296875 45.175781 L 21.417969 45.492188 C 21.371094 45.496094 21.324219 45.480469 21.289062 45.453125 L 21.257812 45.429688 L 21.121094 45.316406 C 21.085938 45.285156 21.039062 45.273438 20.996094 45.277344 L 19.433594 45.449219 L 19.527344 45.621094 L 20.9375 45.464844 C 20.984375 45.460938 21.027344 45.476562 21.066406 45.503906 C 21.113281 45.546875 21.175781 45.597656 21.175781 45.597656 C 21.25 45.65625 21.339844 45.683594 21.433594 45.671875 L 24.3125 45.355469 C 24.34375 45.351562 24.371094 45.367188 24.382812 45.390625 C 24.449219 45.511719 24.582031 45.585938 24.726562 45.570312 C 24.929688 45.546875 25.074219 45.351562 25.027344 45.148438 C 24.992188 44.988281 24.851562 44.875 24.695312 44.875 Z M 24.699219 45.324219 C 24.644531 45.332031 24.589844 45.289062 24.585938 45.234375 C 24.578125 45.175781 24.621094 45.125 24.675781 45.117188 C 24.734375 45.113281 24.785156 45.15625 24.789062 45.210938 C 24.796875 45.269531 24.757812 45.316406 24.699219 45.324219 Z M 24.699219 45.324219 " fill-opacity="1" fill-rule="nonzero"/></g></g></g><g clip-path="url(#a9de018c9f)"><g clip-path="url(#033379c9df)"><g clip-path="url(#18832b0dc8)"><path fill="#226699" d="M 25.238281 47.007812 C 25.074219 47.003906 24.9375 47.117188 24.898438 47.265625 C 24.894531 47.289062 24.875 47.304688 24.851562 47.304688 L 24.125 47.382812 C 24.074219 47.390625 24.027344 47.410156 23.992188 47.445312 L 23.644531 47.773438 C 23.605469 47.808594 23.558594 47.828125 23.511719 47.832031 L 22.882812 47.902344 L 22.902344 48.082031 L 23.59375 48.003906 C 23.644531 47.996094 23.691406 47.976562 23.722656 47.945312 L 24.070312 47.617188 C 24.105469 47.585938 24.152344 47.5625 24.199219 47.558594 L 24.871094 47.484375 C 24.894531 47.484375 24.914062 47.492188 24.925781 47.511719 C 24.988281 47.636719 25.125 47.71875 25.273438 47.703125 C 25.476562 47.679688 25.621094 47.484375 25.574219 47.277344 C 25.539062 47.121094 25.398438 47.007812 25.238281 47.007812 Z M 25.246094 47.457031 C 25.191406 47.464844 25.136719 47.421875 25.132812 47.367188 C 25.125 47.308594 25.167969 47.257812 25.222656 47.25 C 25.28125 47.246094 25.332031 47.289062 25.335938 47.34375 C 25.34375 47.398438 25.304688 47.449219 25.246094 47.457031 Z M 25.246094 47.457031 " fill-opacity="1" fill-rule="nonzero"/></g></g></g><g clip-path="url(#42cce283c0)"><g clip-path="url(#5a05afab79)"><g clip-path="url(#82284f1dbf)"><path fill="#226699" d="M 25.792969 49.082031 C 25.621094 49.085938 25.488281 49.210938 25.457031 49.363281 C 25.453125 49.394531 25.421875 49.417969 25.390625 49.421875 L 24.8125 49.484375 C 24.765625 49.492188 24.722656 49.476562 24.6875 49.449219 L 24.65625 49.425781 L 24.519531 49.3125 C 24.484375 49.28125 24.4375 49.269531 24.390625 49.273438 L 23.054688 49.421875 L 23.074219 49.601562 L 24.335938 49.460938 C 24.382812 49.457031 24.429688 49.46875 24.464844 49.5 C 24.511719 49.539062 24.574219 49.59375 24.574219 49.59375 C 24.648438 49.652344 24.738281 49.675781 24.832031 49.667969 L 25.445312 49.601562 C 25.46875 49.597656 25.496094 49.605469 25.511719 49.628906 C 25.582031 49.730469 25.707031 49.792969 25.835938 49.78125 C 26.039062 49.757812 26.183594 49.5625 26.136719 49.355469 C 26.101562 49.195312 25.957031 49.082031 25.792969 49.082031 Z M 25.808594 49.535156 C 25.75 49.542969 25.699219 49.5 25.695312 49.445312 C 25.6875 49.386719 25.730469 49.335938 25.785156 49.332031 C 25.84375 49.324219 25.894531 49.367188 25.898438 49.421875 C 25.90625 49.476562 25.863281 49.527344 25.808594 49.535156 Z M 25.808594 49.535156 " fill-opacity="1" fill-rule="nonzero"/></g></g></g><g clip-path="url(#7c62d3f86d)"><g clip-path="url(#c029a2b114)"><g clip-path="url(#17e049136c)"><path fill="#226699" d="M 25.382812 49.78125 C 25.21875 49.78125 25.082031 49.898438 25.046875 50.042969 C 25.039062 50.070312 25.019531 50.089844 24.988281 50.09375 L 24.609375 50.136719 C 24.5625 50.140625 24.519531 50.164062 24.488281 50.203125 L 24.300781 50.441406 C 24.25 50.503906 24.175781 50.542969 24.097656 50.550781 L 22.820312 50.691406 L 22.839844 50.871094 L 24.117188 50.730469 C 24.246094 50.714844 24.359375 50.652344 24.441406 50.550781 L 24.585938 50.371094 C 24.617188 50.332031 24.65625 50.3125 24.703125 50.308594 L 25.015625 50.273438 C 25.042969 50.269531 25.070312 50.28125 25.082031 50.304688 C 25.148438 50.421875 25.277344 50.492188 25.421875 50.476562 C 25.625 50.453125 25.769531 50.257812 25.722656 50.054688 C 25.6875 49.894531 25.542969 49.78125 25.382812 49.78125 Z M 25.394531 50.234375 C 25.339844 50.238281 25.285156 50.195312 25.28125 50.140625 C 25.273438 50.085938 25.316406 50.035156 25.371094 50.027344 C 25.429688 50.019531 25.480469 50.0625 25.484375 50.117188 C 25.492188 50.175781 25.449219 50.226562 25.394531 50.234375 Z M 25.394531 50.234375 " fill-opacity="1" fill-rule="nonzero"/></g></g></g><g clip-path="url(#27b5185618)"><g clip-path="url(#0a37849570)"><g clip-path="url(#9767eb4571)"><path fill="#226699" d="M 24.363281 35.40625 C 24.339844 35.378906 24.308594 35.367188 24.269531 35.371094 C 23.394531 35.511719 22.546875 35.757812 21.746094 36.097656 C 21.117188 36.367188 20.3125 36.757812 19.703125 37.386719 C 19.140625 37.964844 18.84375 38.703125 18.882812 39.40625 C 18.894531 39.617188 18.929688 39.828125 18.964844 40.035156 C 19.003906 40.261719 19.042969 40.496094 19.050781 40.730469 C 19.058594 41.097656 18.992188 41.496094 18.851562 41.914062 C 18.792969 42.089844 18.722656 42.269531 18.636719 42.464844 C 18.59375 42.558594 18.542969 42.652344 18.5 42.75 C 18.453125 42.835938 18.410156 42.925781 18.371094 43.015625 C 18.265625 43.242188 18.265625 43.421875 18.363281 43.550781 C 18.4375 43.644531 18.539062 43.675781 18.640625 43.707031 C 18.683594 43.71875 18.726562 43.730469 18.765625 43.75 C 18.914062 43.8125 19.003906 44.011719 18.996094 44.15625 C 18.996094 44.199219 18.980469 44.25 18.964844 44.296875 C 18.929688 44.394531 18.898438 44.496094 18.972656 44.59375 C 19.011719 44.644531 19.074219 44.679688 19.128906 44.710938 C 19.136719 44.71875 19.148438 44.722656 19.15625 44.726562 C 19.15625 44.730469 19.15625 44.730469 19.15625 44.730469 C 19.15625 44.734375 19.15625 44.738281 19.15625 44.742188 C 19.15625 44.761719 19.152344 44.785156 19.152344 44.808594 C 19.152344 44.816406 19.148438 44.824219 19.148438 44.835938 C 19.148438 44.84375 19.148438 44.855469 19.148438 44.863281 C 19.140625 44.90625 19.136719 44.953125 19.144531 45 C 19.15625 45.066406 19.199219 45.101562 19.242188 45.132812 C 19.253906 45.144531 19.269531 45.15625 19.28125 45.167969 C 19.304688 45.1875 19.308594 45.214844 19.316406 45.246094 C 19.316406 45.257812 19.320312 45.265625 19.324219 45.277344 L 19.4375 45.757812 C 19.449219 45.804688 19.460938 45.851562 19.46875 45.894531 C 19.503906 46.050781 19.539062 46.210938 19.601562 46.359375 C 19.738281 46.679688 20.027344 46.859375 20.417969 46.867188 C 20.652344 46.867188 20.875 46.808594 21.089844 46.746094 C 21.234375 46.703125 21.382812 46.660156 21.535156 46.640625 C 21.75 46.609375 21.929688 46.632812 22.089844 46.714844 C 22.230469 46.785156 22.355469 46.898438 22.464844 47.046875 C 22.707031 47.378906 22.773438 47.800781 22.839844 48.203125 C 22.898438 48.589844 22.964844 49.046875 22.960938 49.503906 C 22.957031 50.347656 22.691406 51.0625 22.210938 51.515625 C 22.085938 51.628906 21.953125 51.726562 21.8125 51.800781 C 21.746094 51.832031 21.734375 51.910156 21.761719 51.964844 C 21.78125 51.996094 21.816406 52.023438 21.859375 52.019531 C 21.871094 52.019531 21.882812 52.015625 21.898438 52.007812 C 22.472656 51.707031 22.90625 51.113281 23.085938 50.371094 C 23.175781 50.003906 23.203125 49.589844 23.171875 49.105469 C 23.148438 48.699219 23.089844 48.269531 23 47.820312 C 22.933594 47.492188 22.820312 47.074219 22.519531 46.761719 C 22.253906 46.484375 21.894531 46.359375 21.511719 46.414062 C 21.359375 46.4375 21.210938 46.480469 21.066406 46.519531 C 20.851562 46.582031 20.628906 46.644531 20.398438 46.636719 C 20.226562 46.632812 20.085938 46.589844 19.980469 46.507812 C 19.835938 46.390625 19.777344 46.203125 19.734375 46.023438 C 19.695312 45.878906 19.664062 45.734375 19.628906 45.589844 C 19.613281 45.519531 19.597656 45.449219 19.578125 45.382812 C 19.574219 45.351562 19.566406 45.320312 19.558594 45.289062 C 19.546875 45.21875 19.53125 45.144531 19.503906 45.082031 C 19.488281 45.042969 19.453125 45.015625 19.421875 44.996094 C 19.402344 44.984375 19.386719 44.96875 19.371094 44.953125 C 19.371094 44.945312 19.371094 44.941406 19.371094 44.933594 C 19.367188 44.929688 19.367188 44.921875 19.367188 44.917969 C 19.371094 44.894531 19.371094 44.878906 19.371094 44.855469 C 19.375 44.847656 19.375 44.835938 19.375 44.824219 C 19.375 44.816406 19.375 44.808594 19.378906 44.796875 C 19.382812 44.742188 19.386719 44.683594 19.367188 44.632812 C 19.339844 44.566406 19.277344 44.53125 19.226562 44.5 C 19.21875 44.496094 19.210938 44.492188 19.207031 44.488281 C 19.203125 44.484375 19.199219 44.484375 19.195312 44.480469 C 19.175781 44.472656 19.15625 44.460938 19.152344 44.449219 C 19.144531 44.429688 19.160156 44.390625 19.167969 44.371094 C 19.167969 44.367188 19.171875 44.359375 19.171875 44.355469 C 19.175781 44.347656 19.179688 44.335938 19.183594 44.328125 C 19.203125 44.261719 19.222656 44.195312 19.222656 44.125 C 19.21875 44.035156 19.195312 43.929688 19.152344 43.839844 C 19.078125 43.679688 18.957031 43.566406 18.796875 43.515625 C 18.777344 43.507812 18.75 43.503906 18.730469 43.496094 C 18.683594 43.484375 18.632812 43.472656 18.59375 43.449219 C 18.523438 43.410156 18.503906 43.351562 18.523438 43.25 C 18.546875 43.125 18.613281 43.003906 18.675781 42.882812 C 18.703125 42.832031 18.734375 42.78125 18.757812 42.730469 C 19.179688 41.84375 19.335938 41.097656 19.246094 40.386719 C 19.230469 40.257812 19.210938 40.128906 19.1875 40 C 19.132812 39.699219 19.082031 39.386719 19.105469 39.078125 C 19.136719 38.734375 19.257812 38.382812 19.457031 38.058594 C 19.808594 37.484375 20.371094 37.015625 21.238281 36.578125 C 22.011719 36.1875 22.828125 35.894531 23.671875 35.710938 C 23.871094 35.664062 24.082031 35.625 24.292969 35.59375 C 24.332031 35.585938 24.367188 35.558594 24.378906 35.523438 C 24.398438 35.488281 24.390625 35.4375 24.363281 35.40625 Z M 19.351562 44.953125 C 19.351562 44.949219 19.351562 44.945312 19.351562 44.945312 C 19.359375 44.941406 19.363281 44.945312 19.363281 44.949219 Z M 19.351562 44.953125 " fill-opacity="1" fill-rule="nonzero"/></g></g></g><g clip-path="url(#e1236426d6)"><g clip-path="url(#7114918558)"><g clip-path="url(#f5a1b79f58)"><path fill="#226699" d="M 31.671875 41.53125 C 31.625 41.46875 31.578125 41.410156 31.53125 41.355469 C 31.457031 41.261719 31.378906 41.167969 31.308594 41.070312 C 31.027344 40.6875 30.828125 40.351562 30.691406 40.011719 C 30.523438 39.585938 30.480469 39.15625 30.460938 38.789062 C 30.4375 38.34375 30.40625 37.949219 30.238281 37.566406 C 30.09375 37.246094 29.878906 36.949219 29.59375 36.683594 C 29.101562 36.222656 28.433594 35.898438 27.492188 35.664062 C 26.65625 35.457031 25.785156 35.351562 24.90625 35.351562 C 24.699219 35.351562 24.484375 35.359375 24.269531 35.371094 C 24.199219 35.375 24.167969 35.433594 24.171875 35.484375 C 24.175781 35.542969 24.21875 35.601562 24.292969 35.597656 C 25.164062 35.542969 26.039062 35.601562 26.894531 35.761719 C 27.582031 35.894531 28.464844 36.113281 29.152344 36.613281 C 29.464844 36.839844 29.714844 37.105469 29.898438 37.40625 C 30.085938 37.714844 30.1875 38.070312 30.21875 38.53125 C 30.222656 38.605469 30.230469 38.675781 30.234375 38.746094 C 30.253906 39.097656 30.277344 39.457031 30.378906 39.804688 C 30.484375 40.152344 30.652344 40.503906 30.902344 40.882812 C 31.003906 41.039062 31.121094 41.199219 31.257812 41.375 C 31.3125 41.441406 31.375 41.519531 31.441406 41.601562 L 31.453125 41.613281 C 31.511719 41.683594 31.570312 41.757812 31.601562 41.839844 C 31.65625 41.988281 31.554688 42.042969 31.433594 42.105469 C 31.414062 42.121094 31.390625 42.132812 31.371094 42.144531 C 31.226562 42.226562 31.132812 42.375 31.097656 42.558594 C 31.082031 42.648438 31.082031 42.742188 31.097656 42.824219 C 31.109375 42.894531 31.144531 42.953125 31.179688 43.007812 C 31.1875 43.023438 31.199219 43.042969 31.207031 43.058594 C 31.242188 43.121094 31.242188 43.132812 31.191406 43.175781 C 31.1875 43.183594 31.179688 43.1875 31.175781 43.195312 C 31.128906 43.238281 31.074219 43.289062 31.066406 43.359375 C 31.058594 43.410156 31.074219 43.464844 31.089844 43.511719 C 31.09375 43.519531 31.097656 43.527344 31.097656 43.535156 C 31.101562 43.550781 31.105469 43.558594 31.109375 43.574219 C 31.117188 43.59375 31.121094 43.613281 31.128906 43.632812 L 31.128906 43.640625 C 31.128906 43.644531 31.132812 43.648438 31.132812 43.652344 L 31.136719 43.660156 C 31.125 43.679688 31.109375 43.699219 31.09375 43.714844 C 31.066406 43.746094 31.039062 43.777344 31.03125 43.824219 C 31.015625 43.894531 31.019531 43.972656 31.019531 44.046875 C 31.023438 44.078125 31.023438 44.113281 31.023438 44.144531 C 31.019531 44.214844 31.019531 44.289062 31.019531 44.355469 C 31.015625 44.507812 31.015625 44.660156 31.011719 44.8125 C 31.003906 44.980469 30.988281 45.171875 30.875 45.3125 C 30.664062 45.574219 30.265625 45.585938 29.980469 45.570312 C 29.945312 45.566406 29.910156 45.566406 29.875 45.5625 C 29.496094 45.542969 29.105469 45.519531 28.78125 45.75 C 28.511719 45.9375 28.324219 46.253906 28.25 46.648438 C 28.175781 47.046875 28.210938 47.460938 28.246094 47.863281 L 28.25 47.941406 C 28.292969 48.449219 28.363281 48.855469 28.472656 49.214844 C 28.699219 49.984375 29.148438 50.589844 29.730469 50.914062 C 29.871094 50.996094 30.027344 51.058594 30.195312 51.101562 C 30.210938 51.105469 30.222656 51.105469 30.238281 51.105469 C 30.28125 51.101562 30.308594 51.066406 30.316406 51.03125 C 30.332031 50.972656 30.308594 50.898438 30.234375 50.878906 C 29.628906 50.71875 29.089844 50.191406 28.800781 49.476562 C 28.65625 49.121094 28.5625 48.722656 28.503906 48.222656 C 28.484375 48.035156 28.46875 47.828125 28.449219 47.574219 C 28.4375 47.375 28.425781 47.152344 28.441406 46.9375 C 28.460938 46.632812 28.554688 46.21875 28.867188 45.96875 C 29.144531 45.746094 29.496094 45.769531 29.835938 45.789062 C 29.902344 45.792969 29.96875 45.796875 30.035156 45.800781 C 30.464844 45.816406 30.773438 45.726562 30.980469 45.53125 C 31.242188 45.285156 31.242188 44.914062 31.242188 44.585938 C 31.242188 44.535156 31.242188 44.484375 31.242188 44.4375 L 31.25 43.972656 C 31.25 43.964844 31.25 43.953125 31.25 43.941406 C 31.246094 43.910156 31.246094 43.878906 31.265625 43.855469 C 31.273438 43.84375 31.285156 43.828125 31.296875 43.816406 C 31.328125 43.773438 31.363281 43.730469 31.359375 43.664062 C 31.359375 43.613281 31.34375 43.566406 31.328125 43.519531 C 31.324219 43.507812 31.320312 43.496094 31.316406 43.484375 C 31.3125 43.480469 31.3125 43.472656 31.308594 43.464844 C 31.304688 43.445312 31.296875 43.425781 31.292969 43.410156 C 31.292969 43.410156 31.292969 43.40625 31.292969 43.402344 C 31.292969 43.402344 31.292969 43.402344 31.292969 43.398438 L 31.308594 43.386719 C 31.359375 43.335938 31.417969 43.285156 31.445312 43.21875 C 31.492188 43.109375 31.4375 43.019531 31.386719 42.933594 C 31.359375 42.886719 31.332031 42.84375 31.320312 42.792969 C 31.289062 42.648438 31.332031 42.445312 31.476562 42.347656 C 31.507812 42.328125 31.539062 42.308594 31.570312 42.292969 C 31.667969 42.238281 31.769531 42.183594 31.820312 42.0625 C 31.878906 41.910156 31.828125 41.730469 31.671875 41.53125 Z M 31.671875 41.53125 " fill-opacity="1" fill-rule="nonzero"/></g></g></g></svg>